<svg width="65" height="59" viewBox="0 0 65 59" fill="none" xmlns="http://www.w3.org/2000/svg">
<g filter="url(#filter0_d)">
<path d="M32.4999 0C16.7599 0 4 11.4167 4 25.4999C4 39.5832 16.7599 50.9999 32.4999 50.9999C48.24 50.9999 60.9999 39.5832 60.9999 25.4999C60.9832 11.423 48.2331 0.0150481 32.4999 0ZM44.5024 26.3124C44.3051 26.6665 43.9843 26.9536 43.5885 27.1302V27.1392L27.3028 34.425C26.297 34.8746 25.0744 34.5097 24.5718 33.6098C24.4289 33.354 24.3553 33.0716 24.357 32.7857V18.2143C24.3566 17.2083 25.2675 16.3925 26.3918 16.392C26.7081 16.3919 27.02 16.4576 27.3028 16.5841L43.5885 23.8698C44.5947 24.3185 45.004 25.4121 44.5024 26.3124Z" fill="url(#paint0_linear)"/>
<path d="M32.4999 0C16.7599 0 4 11.4167 4 25.4999C4 39.5832 16.7599 50.9999 32.4999 50.9999C48.24 50.9999 60.9999 39.5832 60.9999 25.4999C60.9832 11.423 48.2331 0.0150481 32.4999 0ZM44.5024 26.3124C44.3051 26.6665 43.9843 26.9536 43.5885 27.1302V27.1392L27.3028 34.425C26.297 34.8746 25.0744 34.5097 24.5718 33.6098C24.4289 33.354 24.3553 33.0716 24.357 32.7857V18.2143C24.3566 17.2083 25.2675 16.3925 26.3918 16.392C26.7081 16.3919 27.02 16.4576 27.3028 16.5841L43.5885 23.8698C44.5947 24.3185 45.004 25.4121 44.5024 26.3124Z" fill="url(#paint1_linear)"/>
</g>
<defs>
<filter id="filter0_d" x="0" y="0" width="65" height="59" filterUnits="userSpaceOnUse" color-interpolation-filters="sRGB">
<feFlood flood-opacity="0" result="BackgroundImageFix"/>
<feColorMatrix in="SourceAlpha" type="matrix" values="0 0 0 0 0 0 0 0 0 0 0 0 0 0 0 0 0 0 127 0"/>
<feOffset dy="4"/>
<feGaussianBlur stdDeviation="2"/>
<feColorMatrix type="matrix" values="0 0 0 0 0 0 0 0 0 0 0 0 0 0 0 0 0 0 0.25 0"/>
<feBlend mode="normal" in2="BackgroundImageFix" result="effect1_dropShadow"/>
<feBlend mode="normal" in="SourceGraphic" in2="effect1_dropShadow" result="shape"/>
</filter>
<linearGradient id="paint0_linear" x1="60.9999" y1="1.57387e-06" x2="9.35778" y2="57.0466" gradientUnits="userSpaceOnUse">
<stop offset="0.265625"/>
</linearGradient>
<linearGradient id="paint1_linear" x1="60.9999" y1="1.57387e-06" x2="9.35778" y2="57.0466" gradientUnits="userSpaceOnUse">
<stop offset="1" stop-color="#FFD17F"/>
</linearGradient>
</defs>
</svg>
